#!OML:ASF X:\für Bonn\!DataBase\2005_08_11_Bastian_Final\c3d\Bastian.ASF
:FULLY-SPECIFIED
:DEGREES
62
root 0.568801 17.3197 22.0675 -553.463 -22.8993 -179.801
lowerback 16.671 -1.29265 -0.498911
upperback 12.7048 -3.93602 -0.0264875
thorax 4.3139 -2.9265 0.672183
lowerneck 0.399201 -10.0435 -14.6029
upperneck -7.98093 -13.2643 17.9638
head -0.123313 -6.89965 7.62309
rclavicle -6.98728e-014 2.84262e-014
rhumerus -32.1181 0.639427 -85.5293
rradius 27.0137
rwrist -2.51102
rhand -15.2482 3.35937
rfingers 7.12502
rthumb 10.9253 -26.3364
lclavicle -6.98728e-014 2.84262e-014
lhumerus -16.1136 2.05517 77.4405
lradius 27.146
lwrist 20.7763
lhand -13.1308 -10.9391
lfingers 7.12502
lthumb 12.9671 18.6379
rfemur -14.5524 0.642489 16.5997
rtibia 37.4309
rfoot -6.52383 -13.3422
rtoes -2.87592
lfemur 25.0679 6.89289 -14.1516
ltibia -2.8625e-014
lfoot -4.16921 -3.52238
ltoes -4.95026
63
root 0.567701 17.3178 22.0291 -553.494 -22.815 -179.801
lowerback 16.8376 -1.30343 -0.505518
upperback 12.8148 -3.99637 0.00428461
thorax 4.3545 -2.97747 0.718752
lowerneck 0.364321 -10.0138 -14.5386
upperneck -8.14496 -13.2098 17.8115
head -0.19099 -6.87324 7.57482
rclavicle 3.926e-015 -2.38542e-015
rhumerus -31.9001 0.730935 -85.5832
rradius 27.0321
rwrist -2.39956
rhand -15.2 3.35905
rfingers 7.12502
rthumb 10.9719 -26.3342
lclavicle 3.926e-015 -2.38542e-015
lhumerus -16.1119 1.71191 77.5548
lradius 27.358
lwrist 20.7841
lhand -13.0361 -10.8589
lfingers 7.12502
lthumb 13.0584 18.7123
rfemur -14.6476 1.15677 16.4305
rtibia 36.8706
rfoot -6.62871 -13.89
rtoes -2.65512
lfemur 25.2447 6.84428 -14.0933
ltibia -1.00187e-013
lfoot -4.32676 -3.44442
ltoes -4.85375
64
root 0.566485 17.316 21.9894 -553.541 -22.7283 -179.827
lowerback 17.0268 -1.29956 -0.513019
upperback 12.9265 -4.03903 0.0204347
thorax 4.38417 -3.01975 0.749701
lowerneck 0.404041 -9.99053 -14.492
upperneck -8.35998 -13.1697 17.7018
head -0.278404 -6.85877 7.54792
rclavicle 8.19987e-015 9.93923e-015
rhumerus -31.7269 0.827891 -85.6351
rradius 27.1034
rwrist -2.24382
rhand -15.102 3.34505
rfingers 7.12502
rthumb 11.0664 -26.3432
lclavicle 8.19987e-015 9.93923e-015
lhumerus -16.1377 1.29401 77.687
lradius 27.5851
lwrist 20.8325
lhand -12.9813 -10.7404
lfingers 7.12502
lthumb 13.1112 18.8274
rfemur -14.7108 1.70352 16.2445
rtibia 36.3322
rfoot -6.84058 -14.4546
rtoes -2.94855
lfemur 25.4523 6.80163 -14.0575
ltibia 4.77083e-015
lfoot -4.50282 -3.39078
ltoes -4.88865
65
root 0.565798 17.3145 21.9482 -553.594 -22.7006 -179.849
lowerback 17.2278 -1.307 -0.536701
upperback 13.0557 -4.10527 0.0609305
thorax 4.43138 -3.07879 0.817919
lowerneck 0.301536 -9.99202 -14.4393
upperneck -8.50108 -13.1544 17.5246
head -0.323449 -6.84822 7.48615
rclavicle 2.69353e-014 -4.07509e-015
rhumerus -31.5293 0.972485 -85.67
rradius 27.2
rwrist -2.17269
rhand -15.0388 3.34921
rfingers 7.12502
rthumb 11.1273 -26.3358
lclavicle 2.69353e-014 -4.07509e-015
lhumerus -16.1327 0.911733 77.8533
lradius 27.7693
lwrist 20.7871
lhand -12.9578 -10.6648
lfingers 7.12502
lthumb 13.1339 18.9015
rfemur -14.7426 2.25375 16.0623
rtibia 35.8146
rfoot -7.15941 -15.0625
rtoes -3.58581
lfemur 25.6575 6.70049 -14.0323
ltibia 2.54444e-014
lfoot -4.64296 -3.3082
ltoes -4.63135
66
root 0.564178 17.3122 21.9052 -553.651 -22.6539 -179.872
lowerback 17.4156 -1.30542 -0.528328
upperback 13.1829 -4.15425 0.0882889
thorax 4.48031 -3.12588 0.851726
lowerneck 0.259887 -9.98976 -14.3717
upperneck -8.67355 -13.1392 17.3616
head -0.387338 -6.84135 7.43155
rclavicle 1.13804e-014 -1.59028e-015
rhumerus -31.3631 0.95745 -85.6691
rradius 27.3061
rwrist -1.94766
rhand -14.9496 3.35846
rfingers 7.12502
rthumb 11.2134 -26.3219
lclavicle 1.13804e-014 -1.59028e-015
lhumerus -16.1181 0.642853 78.0051
lradius 27.8946
lwrist 20.6294
lhand -12.9244 -10.5891
lfingers 7.12502
lthumb 13.166 18.9752
rfemur -14.7662 2.82548 15.8787
rtibia 35.3209
rfoot -7.55466 -15.6415
rtoes -3.77214
lfemur 25.8722 6.61973 -14.0095
ltibia -1.00187e-013
lfoot -4.83778 -3.23379
ltoes -4.996
67
root 0.563861 17.3087 21.861 -553.717 -22.6301 -179.921
lowerback 17.6545 -1.30242 -0.592547
upperback 13.3043 -4.21449 0.147143
thorax 4.50449 -3.18667 0.964367
lowerneck 0.213516 -9.98092 -14.3762
upperneck -8.864 -13.1154 17.2004
head -0.452064 -6.82845 7.38979
rclavicle -5.09386e-015 -1.5704e-014
rhumerus -31.2257 1.02068 -85.6172
rradius 27.4757
rwrist -1.73489
rhand -14.8417 3.39752
rfingers 7.12502
rthumb 11.3175 -26.2771
lclavicle -5.09386e-015 -1.5704e-014
lhumerus -16.1241 0.407715 78.2146
lradius 27.947
lwrist 20.4083
lhand -12.9608 -10.6237
lfingers 7.12502
lthumb 13.1309 18.9429
rfemur -14.7727 3.51476 15.6739
rtibia 34.8525
rfoot -7.98339 -16.3078
rtoes -3.68539
lfemur 26.1077 6.51767 -14.007
ltibia -2.54444e-014
lfoot -4.9892 -3.16292
ltoes -5.08376
68
root 0.563433 17.3034 21.8159 -553.782 -22.638 -179.992
lowerback 17.8924 -1.30416 -0.637743
upperback 13.4412 -4.28225 0.178462
thorax 4.54405 -3.25039 1.03753
lowerneck 0.142062 -9.98791 -14.3464
upperneck -9.05409 -13.1124 17.0346
head -0.512125 -6.82658 7.33858
rclavicle 1.23495e-014 -1.63003e-014
rhumerus -31.0712 1.09505 -85.6062
rradius 27.6447
rwrist -1.59677
rhand -14.7588 3.42492
rfingers 7.12502
rthumb 11.3974 -26.2453
lclavicle 1.23495e-014 -1.63003e-014
lhumerus -16.0904 0.276783 78.3937
lradius 27.975
lwrist 20.1032
lhand -12.9712 -10.6138
lfingers 7.12502
lthumb 13.1209 18.9535
rfemur -14.7628 4.1931 15.4402
rtibia 34.4021
rfoot -8.41421 -16.9855
rtoes -3.18309
lfemur 26.353 6.392 -14.0393
ltibia 0
lfoot -5.17207 -3.07433
ltoes -5.4387
